<svg width="104" height="67" viewBox="0 0 104 67" fill="none" xmlns="http://www.w3.org/2000/svg">
<circle cx="11" cy="55" r="10" stroke="black" stroke-width="2"/>
<circle cx="11" cy="33" r="10" stroke="black" stroke-width="2"/>
<circle cx="11" cy="11" r="10" stroke="black" stroke-width="2"/>
<line x1="1" y1="12" x2="1" y2="32" stroke="black" stroke-width="2" stroke-linecap="round"/>
<line x1="21" y1="45" x2="21" y2="65" stroke="black" stroke-width="2" stroke-linecap="round"/>
<line x1="26" y1="1" x2="26" y2="65" stroke="black" stroke-width="2" stroke-linecap="round"/>
<line x1="26.6902" y1="29.6201" x2="44.6201" y2="1.30977" stroke="black" stroke-width="2" stroke-linecap="round"/>
<line x1="28.3367" y1="29.4618" x2="45.4618" y2="64.6633" stroke="black" stroke-width="2" stroke-linecap="round"/>
<line x1="26" y1="65" x2="36" y2="65" stroke="black" stroke-width="2" stroke-linecap="round"/>
<path d="M54.8242 62.6602C54.8242 63.1029 54.8828 63.4479 55 63.6953C55.1172 63.9427 55.2799 64.1315 55.4883 64.2617C55.7096 64.3919 55.9505 64.4766 56.2109 64.5156C56.4844 64.5417 56.7708 64.5547 57.0703 64.5547V66C56.901 66.026 56.7318 66.0456 56.5625 66.0586C56.4193 66.0716 56.2435 66.0781 56.0352 66.0781C55.8398 66.0911 55.6445 66.0977 55.4492 66.0977C55.2539 66.0977 55.0521 66.0911 54.8438 66.0781C54.6484 66.0651 54.4792 66.0456 54.3359 66.0195C53.8932 65.9414 53.5482 65.7526 53.3008 65.4531C53.0534 65.1406 52.8646 64.8021 52.7344 64.4375C52.6172 64.0599 52.5391 63.6953 52.5 63.3438C52.474 62.9922 52.4609 62.7188 52.4609 62.5234V56.5859H51.0156V54.9844H52.4609V51.8594H54.8242V54.9844H56.582V56.5859H54.8242V62.6602ZM64.9609 54.8867C65.6641 54.9518 66.2956 55.1406 66.8555 55.4531C67.4284 55.7656 67.9167 56.1693 68.3203 56.6641C68.724 57.1589 69.0299 57.7253 69.2383 58.3633C69.4596 59.0013 69.5703 59.6654 69.5703 60.3555C69.5703 60.668 69.5508 60.9805 69.5117 61.293H62.8125V59.5742H67.3242C67.3242 59.2357 67.2656 58.9102 67.1484 58.5977C67.0443 58.2852 66.8815 57.9987 66.6602 57.7383C66.4518 57.4648 66.2044 57.237 65.918 57.0547C65.6315 56.8724 65.3125 56.7617 64.9609 56.7227V54.8867ZM64.8828 64.1641C65.026 64.1641 65.2018 64.151 65.4102 64.125C65.6315 64.0859 65.8594 64.0273 66.0938 63.9492C66.3411 63.8581 66.582 63.7474 66.8164 63.6172C67.0638 63.487 67.2786 63.3307 67.4609 63.1484L68.3203 64.457C67.8906 64.9909 67.3893 65.3945 66.8164 65.668C66.2435 65.9414 65.5143 66.0781 64.6289 66.0781C63.9128 66.0781 63.2422 65.9349 62.6172 65.6484C61.9922 65.349 61.4583 64.9453 61.0156 64.4375C60.5729 63.9297 60.2214 63.3372 59.9609 62.6602C59.7005 61.9831 59.5703 61.2539 59.5703 60.4727C59.5703 59.7305 59.6875 59.0273 59.9219 58.3633C60.1693 57.6992 60.5013 57.1198 60.918 56.625C61.3346 56.1172 61.8164 55.707 62.3633 55.3945C62.9232 55.082 63.5221 54.9062 64.1602 54.8672V56.7422C63.6784 56.8333 63.2812 57.0286 62.9688 57.3281C62.6562 57.6276 62.4089 57.9727 62.2266 58.3633C62.0573 58.7409 61.9336 59.1315 61.8555 59.5352C61.7904 59.9388 61.7578 60.2839 61.7578 60.5703C61.7578 61.0781 61.8164 61.5534 61.9336 61.9961C62.0638 62.4258 62.2591 62.8034 62.5195 63.1289C62.7799 63.4414 63.099 63.6953 63.4766 63.8906C63.8672 64.0729 64.3359 64.1641 64.8828 64.1641ZM74.7266 62.6797C74.7266 63.2656 74.8438 63.7018 75.0781 63.9883C75.3255 64.2747 75.6771 64.444 76.1328 64.4961V66.0781C76.0807 66.0911 75.9961 66.0977 75.8789 66.0977C75.4362 66.0977 75.0065 66.0391 74.5898 65.9219C74.1862 65.8047 73.8281 65.6159 73.5156 65.3555C73.2031 65.0951 72.9557 64.75 72.7734 64.3203C72.6042 63.8906 72.5195 63.3633 72.5195 62.7383C72.5195 62.1393 72.6432 61.625 72.8906 61.1953C73.151 60.7526 73.4766 60.3945 73.8672 60.1211C74.2708 59.8346 74.7266 59.6263 75.2344 59.4961C75.7422 59.3529 76.2565 59.2812 76.7773 59.2812H77.6367V60.668H77.207C76.9466 60.668 76.6732 60.694 76.3867 60.7461C76.1003 60.7982 75.8333 60.8958 75.5859 61.0391C75.3385 61.1823 75.1302 61.3906 74.9609 61.6641C74.8047 61.9245 74.7266 62.263 74.7266 62.6797ZM80.8008 62.7383C80.8008 62.8424 80.8073 62.9987 80.8203 63.207C80.8333 63.4023 80.8594 63.6042 80.8984 63.8125C80.9375 64.0208 80.9961 64.2096 81.0742 64.3789C81.1654 64.5482 81.2826 64.6589 81.4258 64.7109L80.8008 66.0195C80.6315 66.0195 80.4492 65.9805 80.2539 65.9023C80.0716 65.8242 79.8893 65.7135 79.707 65.5703C79.5378 65.4271 79.388 65.2708 79.2578 65.1016C79.1406 64.9193 79.0495 64.724 78.9844 64.5156C78.8542 64.8411 78.5938 65.1341 78.2031 65.3945C77.8255 65.6419 77.4023 65.8242 76.9336 65.9414V64.457C77.2461 64.3919 77.526 64.2682 77.7734 64.0859C78.0339 63.8906 78.2552 63.6628 78.4375 63.4023V59.2812C78.4375 58.6432 78.4049 58.1354 78.3398 57.7578C78.2747 57.3802 78.1641 57.1068 78.0078 56.9375C77.8516 56.7552 77.6562 56.6445 77.4219 56.6055C77.2005 56.5534 76.9336 56.5273 76.6211 56.5273C76.3346 56.5273 76.0612 56.5664 75.8008 56.6445C75.5534 56.7096 75.319 56.7943 75.0977 56.8984C74.8893 56.9896 74.7005 57.0938 74.5312 57.2109C74.375 57.3281 74.2578 57.4193 74.1797 57.4844L73.3008 56.1367C73.431 55.9935 73.6263 55.8503 73.8867 55.707C74.1471 55.5508 74.4466 55.4141 74.7852 55.2969C75.1237 55.1797 75.4883 55.0885 75.8789 55.0234C76.2826 54.9453 76.6992 54.9062 77.1289 54.9062C77.5195 54.9062 77.8971 54.9453 78.2617 55.0234C78.6393 55.1016 78.9779 55.2318 79.2773 55.4141C79.5898 55.5964 79.8568 55.8438 80.0781 56.1562C80.3125 56.4557 80.4753 56.8333 80.5664 57.2891C80.6576 57.7448 80.7161 58.207 80.7422 58.6758C80.7812 59.1315 80.8008 59.5872 80.8008 60.043V62.582V62.7383ZM86.6602 54.9844L86.9141 56.1172V66H84.5312V54.9844H86.6602ZM95.8789 54.8672C96.3216 54.8672 96.7383 54.9583 97.1289 55.1406C97.5195 55.3099 97.8581 55.5573 98.1445 55.8828C98.444 56.2083 98.6719 56.599 98.8281 57.0547C98.9974 57.4974 99.082 57.9792 99.082 58.5V66H96.7383V60.0039C96.7383 59.5612 96.7318 59.1445 96.7188 58.7539C96.7188 58.3503 96.6797 57.9922 96.6016 57.6797C96.5234 57.3672 96.3932 57.1263 96.2109 56.957C96.0417 56.7747 95.7747 56.6836 95.4102 56.6836C95.319 56.6836 95.1237 56.7031 94.8242 56.7422C94.5247 56.7812 94.1797 56.8919 93.7891 57.0742V55.5312C94.1406 55.3229 94.4987 55.1602 94.8633 55.043C95.2279 54.9258 95.5664 54.8672 95.8789 54.8672ZM92.5 56.3711C92.6562 56.6055 92.7669 56.8594 92.832 57.1328C92.9102 57.3932 92.9557 57.6667 92.9688 57.9531C92.9948 58.2396 93.0013 58.5391 92.9883 58.8516C92.9883 59.151 92.9883 59.4701 92.9883 59.8086V66H90.625V60.0039C90.625 59.5612 90.625 59.1445 90.625 58.7539C90.625 58.3503 90.5859 57.9922 90.5078 57.6797C90.4297 57.3672 90.2995 57.1263 90.1172 56.957C89.9349 56.7747 89.668 56.6836 89.3164 56.6836C89.1602 56.6836 88.9258 56.7161 88.6133 56.7812C88.3138 56.8333 88.0143 56.931 87.7148 57.0742V55.5312C88.0273 55.349 88.3594 55.1992 88.7109 55.082C89.0755 54.9648 89.4336 54.9062 89.7852 54.9062C90.3841 54.9062 90.8854 55.0299 91.2891 55.2773C91.7057 55.5247 92.1094 55.8893 92.5 56.3711Z" fill="black"/>
</svg>
